<svg xmlns="http://www.w3.org/2000/svg" viewBox="0 0 32 32">
  <rect width="32" height="32" rx="7" fill="#b45309"/>
  <g transform="translate(1.491 28.000) scale(0.036364 -0.036364)">
    <path
      d="M144 0V130H335Q387 130 422.0 152.0Q457 174 474.5 218.0Q492 262 492 328Q492 381 481.0 419.0Q470 457 448.5 481.5Q427 506 393.5 518.0Q360 530 315 530H144V660H309Q432 660 510.0 621.0Q588 582 624.0 509.5Q660 437 660 336Q660 258 641.5 201.0Q623 144 591.0 105.5Q559 67 517.5 43.5Q476 20 430.5 10.0Q385 0 340 0ZM69 0V660H230V0Z"
      fill="#f5efe4"
    />
  </g>
</svg>
